<mxfile host="app.diagrams.net" modified="2023-03-27T11:31:55.927Z" agent="Mozilla/5.0 (Windows NT 10.0; Win64; x64) AppleWebKit/537.36 (KHTML, like Gecko) Chrome/111.0.0.0 Safari/537.36 Edg/111.0.1661.54" etag="G-SvZQSCakqzV0vJzrhN" version="21.1.1" type="github">
  <diagram id="C5RBs43oDa-KdzZeNtuy" name="Page-1">
    <mxGraphModel dx="724" dy="395" grid="1" gridSize="10" guides="1" tooltips="1" connect="1" arrows="1" fold="1" page="1" pageScale="1" pageWidth="827" pageHeight="1169" math="0" shadow="0">
      <root>
        <mxCell id="WIyWlLk6GJQsqaUBKTNV-0" />
        <mxCell id="WIyWlLk6GJQsqaUBKTNV-1" parent="WIyWlLk6GJQsqaUBKTNV-0" />
        <mxCell id="WIyWlLk6GJQsqaUBKTNV-3" value="Blog" style="rounded=1;whiteSpace=wrap;html=1;fontSize=12;glass=0;strokeWidth=1;shadow=0;" parent="WIyWlLk6GJQsqaUBKTNV-1" vertex="1">
          <mxGeometry x="320" y="30" width="120" height="40" as="geometry" />
        </mxCell>
        <mxCell id="WIyWlLk6GJQsqaUBKTNV-7" value="标签" style="rounded=1;whiteSpace=wrap;html=1;fontSize=12;glass=0;strokeWidth=1;shadow=0;" parent="WIyWlLk6GJQsqaUBKTNV-1" vertex="1">
          <mxGeometry x="500" y="120" width="120" height="40" as="geometry" />
        </mxCell>
        <mxCell id="m33d9bnlLA5Sg8R3bJcn-1" value="分类" style="rounded=1;whiteSpace=wrap;html=1;fontSize=12;glass=0;strokeWidth=1;shadow=0;" vertex="1" parent="WIyWlLk6GJQsqaUBKTNV-1">
          <mxGeometry x="140" y="120" width="120" height="40" as="geometry" />
        </mxCell>
        <mxCell id="m33d9bnlLA5Sg8R3bJcn-2" value="" style="rounded=0;html=1;jettySize=auto;orthogonalLoop=1;fontSize=11;endArrow=block;endFill=0;endSize=8;strokeWidth=1;shadow=0;labelBackgroundColor=none;edgeStyle=orthogonalEdgeStyle;" edge="1" parent="WIyWlLk6GJQsqaUBKTNV-1" source="WIyWlLk6GJQsqaUBKTNV-3">
          <mxGeometry relative="1" as="geometry">
            <mxPoint x="320" y="50" as="sourcePoint" />
            <mxPoint x="200" y="120" as="targetPoint" />
            <Array as="points">
              <mxPoint x="200" y="50" />
              <mxPoint x="200" y="120" />
            </Array>
          </mxGeometry>
        </mxCell>
        <mxCell id="m33d9bnlLA5Sg8R3bJcn-4" value="" style="rounded=0;html=1;jettySize=auto;orthogonalLoop=1;fontSize=11;endArrow=block;endFill=0;endSize=8;strokeWidth=1;shadow=0;labelBackgroundColor=none;edgeStyle=orthogonalEdgeStyle;exitX=1;exitY=0.5;exitDx=0;exitDy=0;" edge="1" parent="WIyWlLk6GJQsqaUBKTNV-1" source="WIyWlLk6GJQsqaUBKTNV-3">
          <mxGeometry relative="1" as="geometry">
            <mxPoint x="640" y="50" as="sourcePoint" />
            <mxPoint x="560" y="120" as="targetPoint" />
            <Array as="points">
              <mxPoint x="560" y="50" />
              <mxPoint x="560" y="120" />
            </Array>
          </mxGeometry>
        </mxCell>
        <mxCell id="m33d9bnlLA5Sg8R3bJcn-8" value="" style="endArrow=classic;html=1;rounded=0;exitX=0.5;exitY=1;exitDx=0;exitDy=0;" edge="1" parent="WIyWlLk6GJQsqaUBKTNV-1" source="m33d9bnlLA5Sg8R3bJcn-1">
          <mxGeometry width="50" height="50" relative="1" as="geometry">
            <mxPoint x="200" y="220" as="sourcePoint" />
            <mxPoint x="200" y="200" as="targetPoint" />
          </mxGeometry>
        </mxCell>
        <mxCell id="m33d9bnlLA5Sg8R3bJcn-9" value="" style="endArrow=none;html=1;rounded=0;" edge="1" parent="WIyWlLk6GJQsqaUBKTNV-1">
          <mxGeometry width="50" height="50" relative="1" as="geometry">
            <mxPoint x="80" y="200" as="sourcePoint" />
            <mxPoint x="320" y="200" as="targetPoint" />
            <Array as="points">
              <mxPoint x="200" y="200" />
            </Array>
          </mxGeometry>
        </mxCell>
        <mxCell id="m33d9bnlLA5Sg8R3bJcn-10" value="" style="endArrow=classic;html=1;rounded=0;" edge="1" parent="WIyWlLk6GJQsqaUBKTNV-1">
          <mxGeometry width="50" height="50" relative="1" as="geometry">
            <mxPoint x="80" y="200" as="sourcePoint" />
            <mxPoint x="80" y="240" as="targetPoint" />
          </mxGeometry>
        </mxCell>
        <mxCell id="m33d9bnlLA5Sg8R3bJcn-11" value="" style="endArrow=classic;html=1;rounded=0;" edge="1" parent="WIyWlLk6GJQsqaUBKTNV-1">
          <mxGeometry width="50" height="50" relative="1" as="geometry">
            <mxPoint x="140" y="200" as="sourcePoint" />
            <mxPoint x="140" y="240" as="targetPoint" />
          </mxGeometry>
        </mxCell>
        <mxCell id="m33d9bnlLA5Sg8R3bJcn-14" value="" style="endArrow=classic;html=1;rounded=0;" edge="1" parent="WIyWlLk6GJQsqaUBKTNV-1">
          <mxGeometry width="50" height="50" relative="1" as="geometry">
            <mxPoint x="199.71" y="200" as="sourcePoint" />
            <mxPoint x="199.71" y="240" as="targetPoint" />
          </mxGeometry>
        </mxCell>
        <mxCell id="m33d9bnlLA5Sg8R3bJcn-15" value="" style="endArrow=classic;html=1;rounded=0;" edge="1" parent="WIyWlLk6GJQsqaUBKTNV-1">
          <mxGeometry width="50" height="50" relative="1" as="geometry">
            <mxPoint x="260" y="200" as="sourcePoint" />
            <mxPoint x="260" y="240" as="targetPoint" />
          </mxGeometry>
        </mxCell>
        <mxCell id="m33d9bnlLA5Sg8R3bJcn-16" value="" style="endArrow=classic;html=1;rounded=0;" edge="1" parent="WIyWlLk6GJQsqaUBKTNV-1">
          <mxGeometry width="50" height="50" relative="1" as="geometry">
            <mxPoint x="320" y="200" as="sourcePoint" />
            <mxPoint x="320" y="240" as="targetPoint" />
          </mxGeometry>
        </mxCell>
        <mxCell id="m33d9bnlLA5Sg8R3bJcn-17" value="" style="endArrow=none;html=1;rounded=0;" edge="1" parent="WIyWlLk6GJQsqaUBKTNV-1">
          <mxGeometry width="50" height="50" relative="1" as="geometry">
            <mxPoint x="439.58" y="200" as="sourcePoint" />
            <mxPoint x="679.5799999999999" y="200" as="targetPoint" />
            <Array as="points">
              <mxPoint x="559.5799999999999" y="200" />
            </Array>
          </mxGeometry>
        </mxCell>
        <mxCell id="m33d9bnlLA5Sg8R3bJcn-18" value="" style="endArrow=classic;html=1;rounded=0;" edge="1" parent="WIyWlLk6GJQsqaUBKTNV-1">
          <mxGeometry width="50" height="50" relative="1" as="geometry">
            <mxPoint x="439.58" y="200" as="sourcePoint" />
            <mxPoint x="439.58" y="240" as="targetPoint" />
          </mxGeometry>
        </mxCell>
        <mxCell id="m33d9bnlLA5Sg8R3bJcn-19" value="" style="endArrow=classic;html=1;rounded=0;" edge="1" parent="WIyWlLk6GJQsqaUBKTNV-1">
          <mxGeometry width="50" height="50" relative="1" as="geometry">
            <mxPoint x="499.58" y="200" as="sourcePoint" />
            <mxPoint x="499.58" y="240" as="targetPoint" />
          </mxGeometry>
        </mxCell>
        <mxCell id="m33d9bnlLA5Sg8R3bJcn-20" value="" style="endArrow=classic;html=1;rounded=0;" edge="1" parent="WIyWlLk6GJQsqaUBKTNV-1">
          <mxGeometry width="50" height="50" relative="1" as="geometry">
            <mxPoint x="559.29" y="200" as="sourcePoint" />
            <mxPoint x="559.29" y="240" as="targetPoint" />
          </mxGeometry>
        </mxCell>
        <mxCell id="m33d9bnlLA5Sg8R3bJcn-21" value="" style="endArrow=classic;html=1;rounded=0;" edge="1" parent="WIyWlLk6GJQsqaUBKTNV-1">
          <mxGeometry width="50" height="50" relative="1" as="geometry">
            <mxPoint x="619.5799999999999" y="200" as="sourcePoint" />
            <mxPoint x="619.5799999999999" y="240" as="targetPoint" />
          </mxGeometry>
        </mxCell>
        <mxCell id="m33d9bnlLA5Sg8R3bJcn-22" value="" style="endArrow=classic;html=1;rounded=0;" edge="1" parent="WIyWlLk6GJQsqaUBKTNV-1">
          <mxGeometry width="50" height="50" relative="1" as="geometry">
            <mxPoint x="679.5799999999999" y="200" as="sourcePoint" />
            <mxPoint x="679.5799999999999" y="240" as="targetPoint" />
          </mxGeometry>
        </mxCell>
        <mxCell id="m33d9bnlLA5Sg8R3bJcn-23" value="" style="endArrow=classic;html=1;rounded=0;exitX=0.5;exitY=1;exitDx=0;exitDy=0;" edge="1" parent="WIyWlLk6GJQsqaUBKTNV-1">
          <mxGeometry width="50" height="50" relative="1" as="geometry">
            <mxPoint x="559.5799999999999" y="160" as="sourcePoint" />
            <mxPoint x="559.5799999999999" y="200" as="targetPoint" />
          </mxGeometry>
        </mxCell>
        <mxCell id="m33d9bnlLA5Sg8R3bJcn-24" value="笔记" style="rounded=1;whiteSpace=wrap;html=1;" vertex="1" parent="WIyWlLk6GJQsqaUBKTNV-1">
          <mxGeometry x="50" y="240" width="60" height="30" as="geometry" />
        </mxCell>
        <mxCell id="m33d9bnlLA5Sg8R3bJcn-25" value="碎碎念" style="rounded=1;whiteSpace=wrap;html=1;" vertex="1" parent="WIyWlLk6GJQsqaUBKTNV-1">
          <mxGeometry x="110" y="240" width="60" height="30" as="geometry" />
        </mxCell>
        <mxCell id="m33d9bnlLA5Sg8R3bJcn-26" value="命令" style="rounded=1;whiteSpace=wrap;html=1;" vertex="1" parent="WIyWlLk6GJQsqaUBKTNV-1">
          <mxGeometry x="170" y="240" width="60" height="30" as="geometry" />
        </mxCell>
        <mxCell id="m33d9bnlLA5Sg8R3bJcn-27" value="前端" style="rounded=1;whiteSpace=wrap;html=1;" vertex="1" parent="WIyWlLk6GJQsqaUBKTNV-1">
          <mxGeometry x="230" y="240" width="60" height="30" as="geometry" />
        </mxCell>
        <mxCell id="m33d9bnlLA5Sg8R3bJcn-28" value="后端" style="rounded=1;whiteSpace=wrap;html=1;" vertex="1" parent="WIyWlLk6GJQsqaUBKTNV-1">
          <mxGeometry x="290" y="240" width="60" height="30" as="geometry" />
        </mxCell>
        <mxCell id="m33d9bnlLA5Sg8R3bJcn-29" value="" style="rounded=1;whiteSpace=wrap;html=1;" vertex="1" parent="WIyWlLk6GJQsqaUBKTNV-1">
          <mxGeometry x="410" y="240" width="60" height="30" as="geometry" />
        </mxCell>
        <mxCell id="m33d9bnlLA5Sg8R3bJcn-30" value="" style="rounded=1;whiteSpace=wrap;html=1;" vertex="1" parent="WIyWlLk6GJQsqaUBKTNV-1">
          <mxGeometry x="470" y="240" width="60" height="30" as="geometry" />
        </mxCell>
        <mxCell id="m33d9bnlLA5Sg8R3bJcn-31" value="" style="rounded=1;whiteSpace=wrap;html=1;" vertex="1" parent="WIyWlLk6GJQsqaUBKTNV-1">
          <mxGeometry x="530" y="240" width="60" height="30" as="geometry" />
        </mxCell>
        <mxCell id="m33d9bnlLA5Sg8R3bJcn-32" value="" style="rounded=1;whiteSpace=wrap;html=1;" vertex="1" parent="WIyWlLk6GJQsqaUBKTNV-1">
          <mxGeometry x="590" y="240" width="60" height="30" as="geometry" />
        </mxCell>
        <mxCell id="m33d9bnlLA5Sg8R3bJcn-33" value="" style="rounded=1;whiteSpace=wrap;html=1;" vertex="1" parent="WIyWlLk6GJQsqaUBKTNV-1">
          <mxGeometry x="650" y="240" width="60" height="30" as="geometry" />
        </mxCell>
        <mxCell id="m33d9bnlLA5Sg8R3bJcn-34" value="" style="endArrow=none;dashed=1;html=1;dashPattern=1 3;strokeWidth=2;rounded=0;" edge="1" parent="WIyWlLk6GJQsqaUBKTNV-1">
          <mxGeometry width="50" height="50" relative="1" as="geometry">
            <mxPoint x="320" y="200" as="sourcePoint" />
            <mxPoint x="440" y="200" as="targetPoint" />
            <Array as="points" />
          </mxGeometry>
        </mxCell>
      </root>
    </mxGraphModel>
  </diagram>
</mxfile>
